<?xml version="1.0" encoding="utf-8"?>
<!-- Generator: Adobe Illustrator 24.0.3, SVG Export Plug-In . SVG Version: 6.00 Build 0)  -->
<svg version="1.1" id="Layer_1" xmlns:serif="http://www.serif.com/"
	 xmlns="http://www.w3.org/2000/svg" xmlns:xlink="http://www.w3.org/1999/xlink" x="0px" y="0px" viewBox="0 0 1920 1400"
	 style="enable-background:new 0 0 1920 1400;" xml:space="preserve">
<style type="text/css">
	.st0{fill-rule:evenodd;clip-rule:evenodd;fill:#30D27C;}
</style>
<path class="st0" d="M960,0c386.3,0,700,313.7,700,700s-313.7,700-700,700s-700-313.7-700-700S573.7,0,960,0z M741.1,1093.4V546.7
	H559.4v546.7H741.1z M1396.4,1093.4V779.9c0-167.9-89.7-246-209.2-246c-96.4,0-139.6,53-163.8,90.3v-77.4H841.7
	c2.4,51.3,0,546.7,0,546.7h181.7V788.1c0-16.3,1.2-32.7,6-44.4c13.1-32.6,43-66.4,93.2-66.4c65.7,0,92,50.1,92,123.6v292.5
	L1396.4,1093.4L1396.4,1093.4z M651.5,283.1c-62.2,0-102.8,40.9-102.8,94.5c0,52.5,39.4,94.5,100.4,94.5h1.2
	c63.4,0,102.8-42,102.8-94.5C751.9,324,713.6,283.1,651.5,283.1L651.5,283.1z"/>
</svg>
