<?xml version="1.0" encoding="utf-8"?>
<!-- Generator: Adobe Illustrator 24.0.2, SVG Export Plug-In . SVG Version: 6.00 Build 0)  -->
<svg version="1.1" id="Layer_1" xmlns:serif="http://www.serif.com/"
	 xmlns="http://www.w3.org/2000/svg" xmlns:xlink="http://www.w3.org/1999/xlink" x="0px" y="0px" viewBox="0 0 1920 1080"
	 style="enable-background:new 0 0 1920 1080;" xml:space="preserve">
<style type="text/css">
	.st0{fill-rule:evenodd;clip-rule:evenodd;fill:#30D27C;}
</style>
<path class="st0" d="M960,0c298,0,540,242,540,540s-242,540-540,540S420,838,420,540S662,0,960,0z M791.2,843.5V421.8H651v421.7
	H791.2z M1296.6,843.5V601.6c0-129.5-69.2-189.8-161.4-189.8c-74.4,0-107.7,40.9-126.3,69.6v-59.7H868.7c1.9,39.6,0,421.7,0,421.7
	h140.2V608c0-12.6,0.9-25.2,4.6-34.2c10.1-25.2,33.2-51.3,71.9-51.3c50.7,0,71,38.7,71,95.4v225.6L1296.6,843.5L1296.6,843.5z
	 M722,218.4c-48,0-79.3,31.5-79.3,72.9c0,40.5,30.4,72.9,77.4,72.9h0.9c48.9,0,79.3-32.4,79.3-72.9C799.5,250,770,218.4,722,218.4
	L722,218.4z"/>
</svg>
