<?xml version="1.0" encoding="utf-8"?>
<!-- Generator: Adobe Illustrator 24.0.2, SVG Export Plug-In . SVG Version: 6.00 Build 0)  -->
<svg version="1.1" xmlns="http://www.w3.org/2000/svg" xmlns:xlink="http://www.w3.org/1999/xlink" x="0px" y="0px"
	 viewBox="0 0 471 296.9" style="enable-background:new 0 0 471 296.9;" xml:space="preserve">
<style type="text/css">
	.st0{display:none;}
</style>
<g id="Layer_1" class="st0">
	
		<image style="display:inline;overflow:visible;opacity:0.41;" width="1701" height="1096" xlink:href="26E222DA681740CB.jpg"  transform="matrix(0.8431 1.274331e-02 -1.274331e-02 0.8431 -466.7376 -435.9453)">
	</image>
</g>
<g id="Layer_2">
	<path d="M471,126.3c0-1.6,0-3-0.1-4.3c-0.1-1.9-0.2-3.9-0.4-6c-0.1-1.4-0.3-2.9-0.4-4.3c-0.4-3.6-1-7.3-1.8-10.9
		c-0.7-3.5-1.6-6.9-2.6-10.3c-2.2-7.3-5-14.4-8.4-21.2c-0.3-0.5-0.5-1.1-0.8-1.6c-2.1-3.9-4.3-7.7-6.7-11.3c-0.5-0.7-1-1.5-1.5-2.2
		c-0.4-0.6-0.8-1.1-1.2-1.7c-1.1-1.6-2.3-3.1-3.4-4.6c-0.6-0.7-1.2-1.5-1.8-2.2c-1.3-1.5-2.5-2.9-3.7-4.2c-0.7-0.7-1.3-1.4-2.1-2.2
		c-0.6-0.7-1.3-1.3-1.9-2c-0.7-0.7-1.3-1.3-2-2c-0.7-0.6-1.3-1.3-2-1.9l-0.1-0.1c-0.7-0.6-1.4-1.2-2.1-1.9c-0.7-0.6-1.4-1.3-2.2-1.8
		c-0.7-0.6-1.5-1.2-2.2-1.8c-2.1-1.7-4.4-3.4-6.8-5.1c-0.8-0.5-1.6-1.1-2.4-1.6c-4-2.7-8.3-5.2-12.8-7.5c-6.8-3.4-13.9-6.3-21.2-8.4
		c-1.2-0.4-2.5-0.7-4-1.1L375.9,4c-1.4-0.4-2.7-0.7-4-1l-0.4-0.1c-1.2-0.3-2.4-0.5-3.6-0.7L367,2c-1.3-0.2-2.5-0.4-3.8-0.6l-1-0.1
		c-1.2-0.2-2.3-0.3-3.5-0.4l-0.6-0.1c-1.3-0.1-2.6-0.3-4-0.4l-0.9-0.1c-1.4-0.1-2.7-0.2-4.1-0.2l-0.4,0C347.4,0,346,0,344.5,0
		L127.1,0L127,0c-7.6,0-15,2-21.5,5.7C99,9.5,93.5,15,89.7,21.5c-0.4,0.8-0.9,1.5-1.2,2.3c-0.4,0.7-0.7,1.5-1.1,2.3
		C85.2,31.5,84,37.2,84,43v25.9H43c-1.9,0-3.9,0.1-5.8,0.4c-5.6,0.7-10.9,2.5-15.7,5.4c-6.5,3.8-12,9.2-15.8,15.8
		c-0.4,0.7-0.7,1.3-1.1,2c-0.1,0.2-0.2,0.4-0.3,0.7C4,93.8,3.7,94.4,3.5,95c-0.1,0.3-0.3,0.7-0.4,1c0,0-0.2,0.6-0.3,0.8
		c-1.8,4.9-2.7,9.9-2.7,15.1v142c0,0.2,0,0.5,0,0.7l0,0.4c0,0.2,0,0.5,0,0.7c0,0.6,0.1,1.2,0.1,1.7c0,0.3,0.1,0.6,0.1,0.9l0,0.3
		c0,0.4,0.1,0.9,0.2,1.3c0.1,0.4,0.1,0.9,0.2,1.3l0.1,0.6c0,0.2,0.1,0.5,0.1,0.7c0.2,0.8,0.4,1.7,0.6,2.5c0.2,0.6,0.3,1.1,0.5,1.7
		l0.1,0.5c0,0.2,0.1,0.3,0.2,0.5c0.2,0.7,0.5,1.4,0.8,2.1c0,0,0.2,0.4,0.2,0.6c0.3,0.7,0.7,1.5,1.1,2.4l0.1,0.1
		c0.4,0.8,0.9,1.7,1.3,2.5c3.8,6.5,9.2,12,15.8,15.8c0.7,0.4,1.3,0.7,2,1.1c0.2,0.1,0.4,0.2,0.7,0.3c0.6,0.3,1.2,0.6,1.9,0.9
		c0.3,0.1,0.6,0.3,0.9,0.4c0,0,0.7,0.3,0.9,0.4c4.8,1.8,9.9,2.7,15,2.7h301.3l0.2,0c1.4,0,2.7,0,4.1-0.1l0.6,0
		c1.4-0.1,2.7-0.1,4-0.2l1.8-0.1c1-0.1,2-0.2,3-0.3l0.2,0c1.3-0.1,2.7-0.3,4-0.5c0.4-0.1,0.8-0.1,1.2-0.2c1-0.2,2.1-0.3,3.1-0.5
		l1-0.2c1.3-0.2,2.6-0.5,3.9-0.8l1-0.2c1-0.2,2-0.5,3-0.7l1.1-0.3c1.3-0.3,2.6-0.7,3.9-1.1c7.3-2.2,14.4-5,21.2-8.4
		c4.5-2.3,8.8-4.8,12.8-7.5c14.1-9.4,26-21.3,35.4-35.4c0.5-0.7,0.9-1.4,1.4-2.1c0.2-0.4,0.5-0.7,0.7-1c0.1-0.1,0.2-0.2,0.2-0.4
		c0,0,0.5-0.7,0.6-0.9c0.2-0.2,0.3-0.5,0.5-0.8c0.2-0.4,0.5-0.8,0.7-1.2l0.1-0.1c0.3-0.6,0.6-1.1,0.9-1.7c0.1-0.1,0.1-0.2,0.2-0.3
		c0.4-0.8,0.9-1.6,1.3-2.4c0.1-0.1,0.2-0.3,0.2-0.4c0.2-0.3,0.3-0.6,0.5-0.9c0.1-0.3,0.3-0.6,0.4-0.8c0.1-0.2,0.2-0.3,0.3-0.5
		l0.4-0.8c0.1-0.1,0.1-0.2,0.2-0.3l0.4-0.8c0.2-0.4,0.4-0.8,0.6-1.2l0.2-0.4c0.4-0.8,0.7-1.5,1-2.3l0.1-0.2c0.5-1.1,0.9-2.2,1.4-3.3
		c0.1-0.1,0.1-0.3,0.1-0.3l0.1-0.1c0-0.1,0.1-0.2,0.1-0.3c0-0.1,0.1-0.2,0.1-0.3c0.1-0.2,0.1-0.4,0.2-0.5c0.1-0.2,0.2-0.5,0.3-0.8
		c0.1-0.3,0.6-1.5,0.6-1.5c0.2-0.5,0.4-1,0.5-1.5l0.4-1.3c0.2-0.4,0.3-0.9,0.4-1.3c0-0.1,0.1-0.1,0.1-0.2c0.4-1.3,0.8-2.6,1.2-3.9
		l0.3-1.1l0.7-2.6l0.2-0.8c0.1-0.2,0.1-0.4,0.2-0.6c0.1-0.4,0.2-0.8,0.3-1.1l-1-0.2l1,0.1c0.1-0.3,0.2-0.7,0.3-1.1
		c0.1-0.2,0.1-0.4,0.1-0.6l0.1-0.3c0.1-0.6,0.2-1.2,0.4-1.8l0.1-0.3c0.1-0.4,0.2-0.9,0.3-1.3l0.3-1.7c0.1-0.3,0.1-0.7,0.2-1l0.2-1.1
		c0.1-0.4,0.1-0.8,0.2-1.1l0.1-1.1l0.1-0.9c0-0.3,0.1-0.6,0.1-0.9l0.3-2.3c0-0.2,0.1-0.5,0.1-0.7c0-0.4,0.1-0.8,0.1-1.2
		c0,0,0.1-1.1,0.1-1.2c0.1-0.8,0.1-1.6,0.2-2.3l0.1-0.9c0-0.4,0-0.8,0.1-1.2l0-0.6c0-1.1,0.1-2.1,0.1-3.2c0-0.6,0-1.2,0-1.7l0-44
		L471,126.3z M448,172.5c0,0.2,0,0.3,0,0.5c0,0.7,0,1.3-0.1,2.1c0,0.3,0,0.5,0,0.8c0,0.8-0.1,1.6-0.1,2.3c-0.1,0.8-0.1,1.6-0.2,2.4
		c0,0.5-0.1,0.9-0.2,1.4c-1.9,16.4-7.7,32.3-17,46c-7.9,11.7-17.9,21.5-29.7,29.2c-6.5,4.2-13.5,7.7-20.8,10.4
		c-11.4,4.2-23.3,6.3-35.5,6.3H43c-11,0-20-9-20-20v-142c0-10.3,7.7-18.9,17.9-19.9c2.3-0.1,275-0.1,277.7-0.1
		c15.3,0,29.5,7.7,38,20.5c4.8,7.4,7.4,15.9,7.4,24.8v21.5H107v-47.8H84v118.7h23v-47.8h257v47.8h23v-92.3l0-0.4
		c0-0.9,0-1.8-0.1-2.8l0-0.3c-0.1-1-0.1-2-0.2-3l-0.1-0.8c-0.1-0.8-0.2-1.5-0.3-2.3l-0.1-0.8c-0.1-1-0.3-2-0.5-3
		c-0.1-0.8-0.3-1.5-0.5-2.3c0-0.1-0.4-1.5-0.4-1.5c-0.2-0.7-0.4-1.3-0.6-2c-0.1-0.3-0.2-0.6-0.3-1c-0.2-0.7-0.4-1.4-0.7-2.1
		l-0.3-0.8c-0.4-1-0.7-1.9-1.1-2.8c-2.5-6-5.7-11.7-9.8-16.7c-1.3-1.6-2.6-3.1-4-4.6c-0.8-0.9-1.6-1.7-2.4-2.4
		c-11.8-11.3-27.4-18-43.7-18.8c-0.7,0-1.3-0.1-2-0.1c-0.5,0-195.4,0-213.2,0V43c0-7.1,3.8-13.8,10-17.3c3-1.7,6.4-2.6,9.9-2.7
		h217.6c12.1,0,24,2.1,35.3,6.3c16,5.8,30.5,15.7,42,28.6c3.1,3.5,6,7.2,8.6,11c7,10.3,12,21.7,14.8,33.8c0.2,0.9,0.4,1.7,0.6,2.6
		c0.1,0.4,0.2,0.8,0.2,1.2l0.1,0.6c0.1,0.5,0.2,0.9,0.3,1.4l0,0.1c0.3,1.5,0.5,3.1,0.7,4.7c0.1,0.5,0.1,1,0.2,1.5l0,0.4l0,0.2v0.1
		l0.1,0.8c0,0.1,0,0.3,0,0.4l0,0.1c0.1,0.6,0.1,1.2,0.2,1.8c0,0.2,0,0.4,0,0.6c0,0.6,0.1,1.2,0.1,1.8c0,0.4,0,0.8,0.1,1.2l0,0.1
		c0,0.4,0,0.8,0,1.2c0,0.3,0,0.5,0,0.8c0,0.7,0,30.3,0,45.9C448,171,448,171.8,448,172.5z"/>
</g>
</svg>
